<mxfile host="app.diagrams.net" agent="Mozilla/5.0 (Windows NT 10.0; Win64; x64) AppleWebKit/537.36 (KHTML, like Gecko) Chrome/138.0.0.0 Safari/537.36" version="27.2.0">
  <diagram name="PÃ¡gina-1" id="Bj3nZcfeQqbxTTWnNjkw">
    <mxGraphModel dx="1001" dy="558" grid="0" gridSize="10" guides="1" tooltips="1" connect="1" arrows="1" fold="1" page="1" pageScale="1" pageWidth="827" pageHeight="1169" math="0" shadow="0">
      <root>
        <mxCell id="0" />
        <mxCell id="1" parent="0" />
        <mxCell id="JV8inrpVN59k3xU7vHZ_-8" value="Availability Zone 1" style="fillColor=none;strokeColor=#147EBA;dashed=1;verticalAlign=top;fontStyle=0;fontColor=#147EBA;whiteSpace=wrap;html=1;" vertex="1" parent="1">
          <mxGeometry x="490" y="50" width="254" height="140" as="geometry" />
        </mxCell>
        <mxCell id="JV8inrpVN59k3xU7vHZ_-17" style="edgeStyle=orthogonalEdgeStyle;rounded=0;orthogonalLoop=1;jettySize=auto;html=1;exitX=0;exitY=0.5;exitDx=0;exitDy=0;exitPerimeter=0;" edge="1" parent="1" source="JV8inrpVN59k3xU7vHZ_-4" target="JV8inrpVN59k3xU7vHZ_-12">
          <mxGeometry relative="1" as="geometry" />
        </mxCell>
        <mxCell id="JV8inrpVN59k3xU7vHZ_-4" value="" style="sketch=0;points=[[0,0,0],[0.25,0,0],[0.5,0,0],[0.75,0,0],[1,0,0],[0,1,0],[0.25,1,0],[0.5,1,0],[0.75,1,0],[1,1,0],[0,0.25,0],[0,0.5,0],[0,0.75,0],[1,0.25,0],[1,0.5,0],[1,0.75,0]];outlineConnect=0;fontColor=#232F3E;fillColor=#ED7100;strokeColor=#ffffff;dashed=0;verticalLabelPosition=bottom;verticalAlign=top;align=center;html=1;fontSize=12;fontStyle=0;aspect=fixed;shape=mxgraph.aws4.resourceIcon;resIcon=mxgraph.aws4.ec2;" vertex="1" parent="1">
          <mxGeometry x="640" y="90" width="78" height="78" as="geometry" />
        </mxCell>
        <mxCell id="JV8inrpVN59k3xU7vHZ_-7" value="VPC" style="points=[[0,0],[0.25,0],[0.5,0],[0.75,0],[1,0],[1,0.25],[1,0.5],[1,0.75],[1,1],[0.75,1],[0.5,1],[0.25,1],[0,1],[0,0.75],[0,0.5],[0,0.25]];outlineConnect=0;gradientColor=none;html=1;whiteSpace=wrap;fontSize=12;fontStyle=0;container=1;pointerEvents=0;collapsible=0;recursiveResize=0;shape=mxgraph.aws4.group;grIcon=mxgraph.aws4.group_vpc2;strokeColor=#8C4FFF;fillColor=none;verticalAlign=top;align=left;spacingLeft=30;fontColor=#AAB7B8;dashed=0;" vertex="1" parent="1">
          <mxGeometry x="210" y="10" width="593" height="542" as="geometry" />
        </mxCell>
        <mxCell id="JV8inrpVN59k3xU7vHZ_-9" value="Availability Zone 2" style="fillColor=none;strokeColor=#147EBA;dashed=1;verticalAlign=top;fontStyle=0;fontColor=#147EBA;whiteSpace=wrap;html=1;" vertex="1" parent="JV8inrpVN59k3xU7vHZ_-7">
          <mxGeometry x="280" y="210" width="250" height="130" as="geometry" />
        </mxCell>
        <mxCell id="JV8inrpVN59k3xU7vHZ_-21" style="edgeStyle=orthogonalEdgeStyle;rounded=0;orthogonalLoop=1;jettySize=auto;html=1;" edge="1" parent="JV8inrpVN59k3xU7vHZ_-7" source="JV8inrpVN59k3xU7vHZ_-12" target="JV8inrpVN59k3xU7vHZ_-3">
          <mxGeometry relative="1" as="geometry" />
        </mxCell>
        <mxCell id="JV8inrpVN59k3xU7vHZ_-12" value="" style="sketch=0;points=[[0,0,0],[0.25,0,0],[0.5,0,0],[0.75,0,0],[1,0,0],[0,1,0],[0.25,1,0],[0.5,1,0],[0.75,1,0],[1,1,0],[0,0.25,0],[0,0.5,0],[0,0.75,0],[1,0.25,0],[1,0.5,0],[1,0.75,0]];outlineConnect=0;fontColor=#232F3E;fillColor=#7AA116;strokeColor=#ffffff;dashed=0;verticalLabelPosition=bottom;verticalAlign=top;align=center;html=1;fontSize=12;fontStyle=0;aspect=fixed;shape=mxgraph.aws4.resourceIcon;resIcon=mxgraph.aws4.elastic_file_system;" vertex="1" parent="JV8inrpVN59k3xU7vHZ_-7">
          <mxGeometry x="300" y="80" width="78" height="78" as="geometry" />
        </mxCell>
        <mxCell id="JV8inrpVN59k3xU7vHZ_-3" value="" style="sketch=0;outlineConnect=0;fontColor=#232F3E;gradientColor=none;fillColor=#7AA116;strokeColor=none;dashed=0;verticalLabelPosition=bottom;verticalAlign=top;align=center;html=1;fontSize=12;fontStyle=0;aspect=fixed;pointerEvents=1;shape=mxgraph.aws4.file_system;" vertex="1" parent="JV8inrpVN59k3xU7vHZ_-7">
          <mxGeometry x="100" y="223.5" width="78" height="73" as="geometry" />
        </mxCell>
        <mxCell id="JV8inrpVN59k3xU7vHZ_-22" style="edgeStyle=orthogonalEdgeStyle;rounded=0;orthogonalLoop=1;jettySize=auto;html=1;" edge="1" parent="JV8inrpVN59k3xU7vHZ_-7" source="JV8inrpVN59k3xU7vHZ_-2" target="JV8inrpVN59k3xU7vHZ_-3">
          <mxGeometry relative="1" as="geometry" />
        </mxCell>
        <mxCell id="JV8inrpVN59k3xU7vHZ_-2" value="" style="sketch=0;points=[[0,0,0],[0.25,0,0],[0.5,0,0],[0.75,0,0],[1,0,0],[0,1,0],[0.25,1,0],[0.5,1,0],[0.75,1,0],[1,1,0],[0,0.25,0],[0,0.5,0],[0,0.75,0],[1,0.25,0],[1,0.5,0],[1,0.75,0]];outlineConnect=0;fontColor=#232F3E;fillColor=#7AA116;strokeColor=#ffffff;dashed=0;verticalLabelPosition=bottom;verticalAlign=top;align=center;html=1;fontSize=12;fontStyle=0;aspect=fixed;shape=mxgraph.aws4.resourceIcon;resIcon=mxgraph.aws4.elastic_file_system;" vertex="1" parent="JV8inrpVN59k3xU7vHZ_-7">
          <mxGeometry x="300" y="243" width="78" height="78" as="geometry" />
        </mxCell>
        <mxCell id="JV8inrpVN59k3xU7vHZ_-5" value="" style="sketch=0;points=[[0,0,0],[0.25,0,0],[0.5,0,0],[0.75,0,0],[1,0,0],[0,1,0],[0.25,1,0],[0.5,1,0],[0.75,1,0],[1,1,0],[0,0.25,0],[0,0.5,0],[0,0.75,0],[1,0.25,0],[1,0.5,0],[1,0.75,0]];outlineConnect=0;fontColor=#232F3E;fillColor=#ED7100;strokeColor=#ffffff;dashed=0;verticalLabelPosition=bottom;verticalAlign=top;align=center;html=1;fontSize=12;fontStyle=0;aspect=fixed;shape=mxgraph.aws4.resourceIcon;resIcon=mxgraph.aws4.ec2;" vertex="1" parent="JV8inrpVN59k3xU7vHZ_-7">
          <mxGeometry x="430" y="243" width="78" height="78" as="geometry" />
        </mxCell>
        <mxCell id="JV8inrpVN59k3xU7vHZ_-11" value="Availability Zone x" style="fillColor=none;strokeColor=#147EBA;dashed=1;verticalAlign=top;fontStyle=0;fontColor=#147EBA;whiteSpace=wrap;html=1;" vertex="1" parent="JV8inrpVN59k3xU7vHZ_-7">
          <mxGeometry x="280" y="390" width="250" height="120" as="geometry" />
        </mxCell>
        <mxCell id="JV8inrpVN59k3xU7vHZ_-23" style="edgeStyle=orthogonalEdgeStyle;rounded=0;orthogonalLoop=1;jettySize=auto;html=1;" edge="1" parent="JV8inrpVN59k3xU7vHZ_-7" source="JV8inrpVN59k3xU7vHZ_-13" target="JV8inrpVN59k3xU7vHZ_-3">
          <mxGeometry relative="1" as="geometry" />
        </mxCell>
        <mxCell id="JV8inrpVN59k3xU7vHZ_-13" value="" style="sketch=0;points=[[0,0,0],[0.25,0,0],[0.5,0,0],[0.75,0,0],[1,0,0],[0,1,0],[0.25,1,0],[0.5,1,0],[0.75,1,0],[1,1,0],[0,0.25,0],[0,0.5,0],[0,0.75,0],[1,0.25,0],[1,0.5,0],[1,0.75,0]];outlineConnect=0;fontColor=#232F3E;fillColor=#7AA116;strokeColor=#ffffff;dashed=0;verticalLabelPosition=bottom;verticalAlign=top;align=center;html=1;fontSize=12;fontStyle=0;aspect=fixed;shape=mxgraph.aws4.resourceIcon;resIcon=mxgraph.aws4.elastic_file_system;" vertex="1" parent="JV8inrpVN59k3xU7vHZ_-7">
          <mxGeometry x="302" y="410" width="78" height="78" as="geometry" />
        </mxCell>
        <mxCell id="JV8inrpVN59k3xU7vHZ_-19" style="edgeStyle=orthogonalEdgeStyle;rounded=0;orthogonalLoop=1;jettySize=auto;html=1;" edge="1" parent="JV8inrpVN59k3xU7vHZ_-7" source="JV8inrpVN59k3xU7vHZ_-14" target="JV8inrpVN59k3xU7vHZ_-13">
          <mxGeometry relative="1" as="geometry" />
        </mxCell>
        <mxCell id="JV8inrpVN59k3xU7vHZ_-14" value="" style="sketch=0;points=[[0,0,0],[0.25,0,0],[0.5,0,0],[0.75,0,0],[1,0,0],[0,1,0],[0.25,1,0],[0.5,1,0],[0.75,1,0],[1,1,0],[0,0.25,0],[0,0.5,0],[0,0.75,0],[1,0.25,0],[1,0.5,0],[1,0.75,0]];outlineConnect=0;fontColor=#232F3E;fillColor=#ED7100;strokeColor=#ffffff;dashed=0;verticalLabelPosition=bottom;verticalAlign=top;align=center;html=1;fontSize=12;fontStyle=0;aspect=fixed;shape=mxgraph.aws4.resourceIcon;resIcon=mxgraph.aws4.ec2;" vertex="1" parent="JV8inrpVN59k3xU7vHZ_-7">
          <mxGeometry x="430" y="410" width="78" height="78" as="geometry" />
        </mxCell>
        <mxCell id="JV8inrpVN59k3xU7vHZ_-20" style="edgeStyle=orthogonalEdgeStyle;rounded=0;orthogonalLoop=1;jettySize=auto;html=1;entryX=1;entryY=0.5;entryDx=0;entryDy=0;entryPerimeter=0;" edge="1" parent="JV8inrpVN59k3xU7vHZ_-7" source="JV8inrpVN59k3xU7vHZ_-5" target="JV8inrpVN59k3xU7vHZ_-2">
          <mxGeometry relative="1" as="geometry" />
        </mxCell>
        <mxCell id="JV8inrpVN59k3xU7vHZ_-24" value="EFS" style="text;strokeColor=none;align=center;fillColor=none;html=1;verticalAlign=middle;whiteSpace=wrap;rounded=0;fontStyle=1;fontSize=18;" vertex="1" parent="JV8inrpVN59k3xU7vHZ_-7">
          <mxGeometry x="80" y="296.5" width="60" height="30" as="geometry" />
        </mxCell>
        <mxCell id="JV8inrpVN59k3xU7vHZ_-25" value="EFS Mount Target" style="text;strokeColor=none;align=center;fillColor=none;html=1;verticalAlign=middle;whiteSpace=wrap;rounded=0;fontStyle=1;fontSize=12;" vertex="1" parent="JV8inrpVN59k3xU7vHZ_-7">
          <mxGeometry x="282" y="315" width="118" height="30" as="geometry" />
        </mxCell>
        <mxCell id="JV8inrpVN59k3xU7vHZ_-26" value="EFS Mount Target" style="text;strokeColor=none;align=center;fillColor=none;html=1;verticalAlign=middle;whiteSpace=wrap;rounded=0;fontStyle=1;fontSize=12;" vertex="1" parent="JV8inrpVN59k3xU7vHZ_-7">
          <mxGeometry x="290" y="480" width="118" height="30" as="geometry" />
        </mxCell>
        <mxCell id="JV8inrpVN59k3xU7vHZ_-28" value="EC2" style="text;strokeColor=none;align=center;fillColor=none;html=1;verticalAlign=middle;whiteSpace=wrap;rounded=0;fontStyle=1;fontSize=18;" vertex="1" parent="JV8inrpVN59k3xU7vHZ_-7">
          <mxGeometry x="439" y="158" width="60" height="30" as="geometry" />
        </mxCell>
        <mxCell id="JV8inrpVN59k3xU7vHZ_-29" value="EC2" style="text;strokeColor=none;align=center;fillColor=none;html=1;verticalAlign=middle;whiteSpace=wrap;rounded=0;fontStyle=1;fontSize=18;" vertex="1" parent="JV8inrpVN59k3xU7vHZ_-7">
          <mxGeometry x="439" y="315" width="60" height="30" as="geometry" />
        </mxCell>
        <mxCell id="JV8inrpVN59k3xU7vHZ_-30" value="EC2" style="text;strokeColor=none;align=center;fillColor=none;html=1;verticalAlign=middle;whiteSpace=wrap;rounded=0;fontStyle=1;fontSize=18;" vertex="1" parent="JV8inrpVN59k3xU7vHZ_-7">
          <mxGeometry x="439" y="482" width="60" height="30" as="geometry" />
        </mxCell>
        <mxCell id="JV8inrpVN59k3xU7vHZ_-31" value="Share File System" style="text;strokeColor=none;align=center;fillColor=none;html=1;verticalAlign=middle;whiteSpace=wrap;rounded=0;fontStyle=1;fontSize=12;" vertex="1" parent="JV8inrpVN59k3xU7vHZ_-7">
          <mxGeometry x="22" y="310" width="118" height="30" as="geometry" />
        </mxCell>
        <mxCell id="JV8inrpVN59k3xU7vHZ_-32" value="richardaguirre.cloud" style="text;strokeColor=none;align=center;fillColor=none;html=1;verticalAlign=middle;whiteSpace=wrap;rounded=0;fontStyle=1;fontSize=7;" vertex="1" parent="JV8inrpVN59k3xU7vHZ_-7">
          <mxGeometry x="499" y="533" width="118" height="30" as="geometry" />
        </mxCell>
        <mxCell id="JV8inrpVN59k3xU7vHZ_-27" value="EFS Mount Target" style="text;strokeColor=none;align=center;fillColor=none;html=1;verticalAlign=middle;whiteSpace=wrap;rounded=0;fontStyle=1;fontSize=12;" vertex="1" parent="1">
          <mxGeometry x="500" y="160" width="118" height="30" as="geometry" />
        </mxCell>
      </root>
    </mxGraphModel>
  </diagram>
</mxfile>
